<?xml version="1.0" encoding="UTF-8" standalone="no"?>
<svg
   version="1.1"
   viewBox="0 0 122.75 76.186286"
   xmlns="http://www.w3.org/2000/svg">
  <g transform="translate(1.5,-0.99999644)">
    <polyline
       stroke="#4a93fa"
       stroke-width="3"
       fill="none"
       points="10,66.21000671386719 0,66.21000671386719 0,0 111.25,0 111.25,10" />
    <rect
       x="10"
       y="10"
       width="111.25"
       height="66.21"
       fill="#4a93fa"
       stroke="none" />
    <g transform="translate(10,10)">
      <g transform="translate(10,10)">
        <path
           d="m 1.27,-22.47 v 0 q 0,-9.55 6.76,-16.35 v 0 q 6.79,-6.76 16.98,-6.76 v 0 5.88 q -7.74,0 -12.82,5.04 v 0 q -5.05,5.08 -5.05,12.19 v 0 q 0,7.11 5.05,12.19 v 0 q 5.08,5.04 12.82,5.04 v 0 5.87 q -10.19,0 -16.98,-6.76 v 0 Q 1.27,-12.92 1.27,-22.47 Z m 32.79,-17.17 v 22.82 q 3.9,-0.16 7.07,-3.49 v 0 q 3.18,-3.34 3.18,-7.94 v 0 q 0,-4.57 -3.18,-7.9 v 0 q -3.17,-3.33 -7.07,-3.49 z m 0,-5.94 v 0.04 q 6.37,0.22 11.23,5.26 v 0 q 4.92,5.05 4.92,12.03 v 0 q 0,7.02 -4.92,12.06 v 0 q -4.86,5.05 -11.23,5.27 v 0 11.55 h -5.88 v -46.21 z m 25.2,28.82 h 7.96 v -18.98 q 0,-1.62 -1.17,-2.79 v 0 q -1.18,-1.17 -2.83,-1.17 v 0 q -1.62,0 -2.79,1.17 v 0 q -1.17,1.17 -1.17,2.79 v 0 z m 3.96,-28.82 v 0 q 4.1,0 6.99,2.89 v 0 q 2.88,2.89 2.88,6.95 v 0 36.37 H 67.22 V -10.89 H 59.26 V 0.63 h -5.88 v -36.37 q 0,-4.06 2.89,-6.95 v 0 q 2.89,-2.89 6.95,-2.89 z m 13.05,0 h 5.87 V -5.24 H 92.52 V 0.63 H 76.27 Z"
           transform="translate(-1.27,45.580002)"
           fill="#ffffff" />
      </g>
    </g>
  </g>
</svg>
