<?xml version="1.0" encoding="UTF-8" standalone="no"?>
<svg
   version="1.1"
   width="360.00003"
   height="109"
   id="svg14"
   sodipodi:docname="tmp0.svg"
   xmlns:inkscape="http://www.inkscape.org/namespaces/inkscape"
   xmlns:sodipodi="http://sodipodi.sourceforge.net/DTD/sodipodi-0.dtd"
   xmlns="http://www.w3.org/2000/svg"
   xmlns:svg="http://www.w3.org/2000/svg">
  <sodipodi:namedview
     id="namedview16"
     pagecolor="#ffffff"
     bordercolor="#000000"
     borderopacity="0.25"
     inkscape:showpageshadow="2"
     inkscape:pageopacity="0.0"
     inkscape:pagecheckerboard="0"
     inkscape:deskcolor="#d1d1d1"
     showgrid="false" />
  <defs
     id="defs2" />
  <g
     id="g12"
     transform="translate(-120.78476,-246.21021)">
    <path
       stroke-width="0"
       fill="#000000"
       opacity="1"
       d="m 163.72647,355.21021 c -7.42602,0 -13.69507,-0.4303 -18.80719,-1.2909 -5.05829,-0.86059 -9.20178,-2.39355 -12.43048,-4.59881 -3.1749,-2.2591 -5.62332,-5.43256 -7.34531,-9.52033 -1.66815,-4.08789 -2.8251,-9.33215 -3.47085,-15.73279 -0.59192,-6.40075 -0.88788,-14.17297 -0.88788,-23.31683 0,-9.19763 0.29596,-16.96991 0.88788,-23.31683 0.64575,-6.40064 1.8027,-11.61805 3.47085,-15.6521 1.72199,-4.08777 4.17041,-7.26123 7.34531,-9.52033 3.2287,-2.31286 7.37219,-3.8996 12.43048,-4.76019 5.11212,-0.8606 11.38117,-1.29089 18.80719,-1.29089 2.90582,0 5.86545,0.1076 8.87891,0.32275 3.06726,0.16138 5.97311,0.40338 8.7175,0.72607 2.79821,0.32276 5.24664,0.7262 7.34527,1.21027 0,3.57684 0,7.15369 0,10.73053 -2.3677,-0.32269 -4.81613,-0.59168 -7.34527,-0.80676 -2.52915,-0.26892 -5.05829,-0.45722 -7.58747,-0.56482 -2.47531,-0.10755 -4.68161,-0.16132 -6.61883,-0.16132 -5.97309,0 -10.97757,0.26892 -15.01343,0.80682 -4.03589,0.48407 -7.23767,1.47913 -9.60541,2.98517 -2.3677,1.50605 -4.17038,3.84577 -5.40805,7.01923 -1.18387,3.11969 -1.99103,7.28821 -2.42154,12.50555 -0.37668,5.21735 -0.565,11.80634 -0.565,19.76685 0,7.90674 0.18832,14.46881 0.565,19.68616 0.43051,5.21734 1.23767,9.41278 2.42154,12.58624 1.23767,3.11963 3.04035,5.43249 5.40805,6.9386 2.36774,1.50598 5.56952,2.52795 9.60541,3.06579 4.03586,0.48413 9.04034,0.7262 15.01343,0.7262 3.49777,0 7.31842,-0.13452 11.46191,-0.40344 4.14349,-0.32276 7.72196,-0.69922 10.73541,-1.12952 0,3.65753 0,7.31506 0,10.9726 -2.20626,0.43029 -4.78924,0.77996 -7.74887,1.04889 -2.90585,0.26892 -5.91928,0.48407 -9.04037,0.64538 -3.06726,0.21521 -6,0.32276 -8.79819,0.32276"
       id="path4" />
    <path
       stroke-width="0"
       fill="#000000"
       opacity="1"
       d="m 212.31839,354 c 0,-2.2204 0,-4.4408 0,-6.66125 0,-2.22034 0,-4.4408 0,-6.6612 0,-2.2204 0,-4.44086 0,-6.66119 0,-2.22046 0,-4.4408 0,-6.66126 0,-2.2204 0,-4.44079 0,-6.66125 0,-2.22034 0,-4.4408 0,-6.6612 0,-2.22039 0,-4.44079 0,-6.66119 0,-2.22046 0,-4.4408 0,-6.66125 0,-2.2204 0,-4.4408 0,-6.66126 0,-2.22034 0,-4.4408 0,-6.66119 0,-2.2204 0,-4.4408 0,-6.6612 0,-2.22046 0,-4.44079 0,-6.66125 0,-2.2204 0,-4.4408 0,-6.6612 0,-2.22039 0,-4.44085 0,-6.66119 0,-2.22046 0,-4.44086 0,-6.66125 0,-2.22046 0,-4.4408 0,-6.66126 2.21973,0 4.43945,0 6.65918,0 2.21976,0 4.43948,0 6.65921,0 0,3.95007 0,7.90002 0,11.85004 0,3.95001 0,7.90002 0,11.85003 0,3.94995 0,7.90003 0,11.84998 0,3.95007 0,7.90002 0,11.85004 0,3.95001 0,7.90002 0,11.85003 0,3.95001 0,7.90003 0,11.84998 0,3.95007 0,7.90002 0,11.85003 0,3.95002 0,7.90003 0,11.85004 2.07175,0 4.14349,0 6.21524,0 2.07175,0 4.14349,0 6.21524,0 4.14349,0 8.28699,0 12.43048,0 2.07178,0 4.14353,0 6.21527,0 2.07172,0 4.1435,0 6.21524,0 2.07175,0 4.1435,0 6.21524,0 2.07175,0 4.1435,0 6.21527,0 0,3.92651 0,7.85291 0,11.77942 -2.6267,0 -5.25338,0 -7.88006,0 -2.62668,0 -5.25336,0 -7.88007,0 -2.62665,0 -5.25335,0 -7.88,0 -2.62671,0 -5.25339,0 -7.88007,0 -2.62668,0 -5.25335,0 -7.88003,0 -2.62668,0 -5.25339,0 -7.88004,0 -2.62671,0 -5.25339,0 -7.88006,0 -2.62668,0 -5.25336,0 -7.88004,0"
       id="path6" />
    <path
       stroke-width="0"
       fill="#000000"
       opacity="1"
       d="m 281.42603,353.0051 c 2.37121,-3.93705 4.2323,-7.11325 4.80755,-8.59934 1.43482,-2.031 2.81824,-3.96777 3.81702,-5.69241 1.53143,-2.11032 2.44617,-3.59192 3.68255,-5.51077 0.95997,-1.9318 2.05091,-3.75904 3.39393,-5.49872 1.06005,-1.75586 1.953,-3.45767 2.73156,-4.95032 0.67707,-1.63812 0.91962,-2.02209 0.99896,-3.97705 0.53486,-1.70404 0.84858,-4.76221 1.07868,-9.18091 1.02978,-4.22491 1.7027,-6.54379 2.32349,-11.39474 0.004,-3.50275 0.46575,-4.91913 0.72766,-6.00992 2.45721,-4.20648 2.58636,-4.60074 5.63794,-7.10727 1.26776,-1.12576 2.42358,-2.96756 3.50763,-4.81799 1.11212,-1.97269 2.40991,-3.67768 3.17529,-5.38846 1.10467,-1.76862 1.6463,-2.96018 2.16321,-4.37839 0.98071,-2.15799 1.81695,-4.18451 2.20324,-6.31955 1.21131,-3.5748 0.87598,-5.59619 0.35645,-10.44499 1.39978,-3.77165 2.75055,-3.28249 9.47766,5.45921 2.79504,-11.13258 3.36908,-11.64795 3.05902,-11.73547 0.20709,-0.0376 2.6084,0.28464 4.53638,0.9183 0.74389,4.6644 0.53448,9.61145 1.67096,14.19977 2.32623,4.45749 4.17242,7.76132 6.69201,11.39102 1.13617,2.05152 2.54334,4.08203 3.96589,6.05783 1.41748,1.92389 2.55316,3.63227 4.04321,5.73215 4.89648,2.70837 8.29278,5.00995 10.21503,8.04166 -0.0437,5.56485 -0.28003,9.61477 -0.5481,15.08706 0.75262,3.23255 0.93439,5.02106 0.9585,8.38306 1.03106,4.69699 1.97387,6.67545 3.50836,10.78278 1.01239,2.6892 2.09082,4.94226 3.25665,6.93664 1.18866,1.47223 2.25934,3.27887 3.31268,5.23053 0.9206,1.70496 1.61383,3.04602 3.04621,4.97223 0.948,2.11261 2.54553,4.82458 4.20038,8.43149 -6.97895,0.2742 -10.73926,0.37747 -16.2403,0.36468 -1.03186,-2.20926 -2.33148,-4.0726 -3.23444,-5.57031 -1.26605,-1.74234 -2.4801,-3.72824 -3.72155,-5.74661 -1.36969,-2.22821 -2.50757,-4.26148 -3.73285,-6.80283 -1.30481,-1.65799 -1.98053,-2.8248 -3.60858,-4.97354 -2.68,-0.85681 -5.48475,-3.66049 -8.70136,-4.89618 2.48492,-0.0488 -3.34686,-5.21771 -3.91156,-5.1383 -4.21857,1.98138 -7.68628,3.63317 -12.66266,7.15304 -6.35608,2.31946 -10.06299,2.49677 -15.4544,2.43125 -1.34845,1.43246 -2.63221,3.25189 -3.79187,5.13147 -1.00763,1.7846 -2.31055,3.69311 -3.54853,5.62088 -1.20367,1.92025 -2.65106,4.21975 -3.63684,5.7005 -1.49066,2.15857 -2.40771,3.82571 -3.90192,6.82809 -5.0606,-0.38318 -8.22039,-0.46738 -15.85314,-0.71957 m 37.97796,-38.49997 c 2.59393,0.57647 6.12714,1.35098 8.04822,1.47552 3.1637,-0.49356 6.76623,-1.58691 10.37762,-3.19864 2.76654,-0.39126 7.0882,-0.1788 7.54255,-0.13669 1.17346,0.23871 8.38098,1.25431 3.40545,1.35895 3.67023,-10.51593 3.49774,-15.88867 3.06464,-17.4032 -1.5047,-2.93801 -3.43665,-5.98339 -5.57013,-9.79489 -3.61145,-4.4472 -6.34723,-8.29171 -8.35755,-12.54937 -2.1759,-4.21354 -4.41717,-8.89823 -6.01885,-15.37998 -0.22883,-0.0804 -2.323,-0.70059 -1.75367,-0.4443 -1.06744,7.53356 -1.99939,13.06359 -3.04022,17.08648 -1.98932,3.75034 -4.23187,7.71964 -6.58691,11.91425 -1.96308,4.09128 -2.43488,5.33816 -2.32483,10.45434 -0.0966,0.3057 2.36603,12.98883 1.21368,16.61753"
       id="path8" />
    <path
       stroke-width="0"
       fill="#000000"
       opacity="1"
       d="m 403.4574,354 c 0,-2.2204 0,-4.4408 0,-6.66125 0,-2.22034 0,-4.4408 0,-6.6612 0,-2.2204 0,-4.44086 0,-6.66119 0,-2.22046 0,-4.4408 0,-6.66126 0,-2.2204 0,-4.44079 0,-6.66125 0,-2.22034 0,-4.4408 0,-6.6612 0,-2.22039 0,-4.44079 0,-6.66119 0,-2.22046 0,-4.4408 0,-6.66125 0,-2.2204 0,-4.4408 0,-6.66126 0,-2.22034 0,-4.4408 0,-6.66119 0,-2.2204 0,-4.4408 0,-6.6612 0,-2.22046 0,-4.44079 0,-6.66125 0,-2.2204 0,-4.4408 0,-6.6612 0,-2.22039 0,-4.44085 0,-6.66119 0,-2.22046 0,-4.44086 0,-6.66125 0,-2.22046 0,-4.4408 0,-6.66126 3.88794,0 7.77575,0 11.66369,0 1.94391,0 3.88788,0 5.83179,0 1.94397,0 3.88794,0 5.83191,0 3.88788,0 7.77576,0 11.66364,0 1.94397,0 3.88787,0 5.83184,0 1.94397,0 3.88788,0 5.83185,0 3.41705,0 6.48432,0.21521 9.20178,0.64551 2.71747,0.4303 5.08521,1.07568 7.10315,1.93628 2.04486,0.83374 3.82733,1.83551 5.34754,3.00537 1.5202,1.16992 2.77801,2.50787 3.7735,4.01391 2.04492,3.01209 3.41711,6.56202 4.11663,10.64991 0.37665,2.01696 0.65918,4.1416 0.84754,6.37378 0.18835,2.23217 0.28253,4.5719 0.28253,7.01922 0,2.31287 -0.0875,4.55847 -0.26233,6.73688 -0.17493,2.17834 -0.43725,4.28955 -0.78705,6.33343 -0.32281,2.04395 -0.82733,3.96686 -1.51343,5.76874 -0.68609,1.80188 -1.55383,3.48267 -2.60314,5.04254 -1.0224,1.5329 -2.30719,2.90448 -3.85425,4.11469 -1.54706,1.2102 -3.35651,2.25909 -5.42829,3.14661 -2.0448,0.86059 -4.44616,1.50598 -7.20398,1.93634 -2.75787,0.43029 -5.87219,0.64544 -9.34307,0.64544 -2.75116,0 -5.50226,0 -8.25336,0 -2.7511,0 -5.50226,0 -8.25342,0 -2.7511,0 -5.5022,0 -8.2533,0 -2.75109,0 -5.50231,0 -8.25341,0 0,3.26758 0,6.53516 0,9.80274 0,3.26757 0,6.53515 0,9.80273 0,3.26758 0,6.53516 0,9.80274 0,3.26757 0,6.53515 0,9.80273 -2.21973,0 -4.43946,0 -6.65918,0 -2.21973,0 -4.43946,0 -6.65918,0 m 13.31836,-50.82898 c 2.38794,0 4.77581,0 7.16369,0 2.38794,0 4.77576,0 7.1637,0 2.38788,0 4.77576,0 7.1637,0 2.38787,0 4.77575,0 7.16363,0 2.52918,0 4.79596,-0.10089 6.80048,-0.30261 2.00451,-0.20166 3.74658,-0.50427 5.22644,-0.90759 2.95959,-0.80689 5.16589,-2.12464 6.61883,-3.95337 1.45294,-1.8288 2.36774,-4.11475 2.74439,-6.85791 0.43048,-2.797 0.64575,-6.1587 0.64575,-10.08515 0,-3.92645 -0.18835,-7.28814 -0.565,-10.08514 -0.32288,-2.79688 -1.18384,-5.05597 -2.58301,-6.77716 -1.39905,-1.77497 -3.57849,-3.09278 -6.53809,-3.95337 -1.47985,-0.45722 -3.22192,-0.80011 -5.22644,-1.02869 -2.00451,-0.22857 -4.2713,-0.34289 -6.80047,-0.34289 -2.41474,0 -4.82959,0 -7.24439,0 -2.41479,0 -4.82959,0 -7.24438,0 -2.41486,0 -4.82959,0 -7.24445,0 -2.41479,0 -4.82959,0 -7.24438,0 0,3.69116 0,7.38226 0,11.07342 0,3.69116 0,7.38233 0,11.07349 0,3.69116 0,7.38232 0,11.07348 0,3.69117 0,7.38233 0,11.07349"
       id="path10" />
  </g>
</svg>
