<?xml version="1.0" encoding="UTF-8" standalone="no"?>
<svg
   version="1.0"
   x="0"
   y="0"
   width="866.47058"
   height="648.46588"
   viewBox="0 0 122.75 90.064706"
   preserveAspectRatio="xMidYMid"
   color-interpolation-filters="sRGB"
   id="svg124"
   sodipodi:docname="logo2.svg"
   xmlns:inkscape="http://www.inkscape.org/namespaces/inkscape"
   xmlns:sodipodi="http://sodipodi.sourceforge.net/DTD/sodipodi-0.dtd"
   xmlns="http://www.w3.org/2000/svg"
   xmlns:svg="http://www.w3.org/2000/svg">
  <sodipodi:namedview
     id="namedview126"
     pagecolor="#ffffff"
     bordercolor="#000000"
     borderopacity="0.25"
     inkscape:showpageshadow="2"
     inkscape:pageopacity="0.0"
     inkscape:pagecheckerboard="0"
     inkscape:deskcolor="#d1d1d1"
     showgrid="false" />
  <defs
     id="defs67" />
  <g
     fill="#4a93fa"
     class="pmspacesvg"
     transform="translate(1.5,-0.99999927)"
     id="g97">
    <g
       id="g95">
      <polyline
         stroke="#4a93fa"
         stroke-width="3"
         fill-opacity="0"
         points="10,80.36599731445312 0,80.36599731445312 0,0 111.25,0 111.25,10"
         id="polyline69" />
      <g
         fill-opacity="1"
         transform="translate(10,10)"
         mask="url(#9fffb855-e1d2-4a99-bae3-7a8746bfb4ab)"
         id="g93">
        <g
           id="g73">
          <rect
             stroke-width="2"
             class="i-icon-bg"
             x="0"
             y="0"
             width="111.25"
             height="80.365997"
             id="rect71" />
        </g>
        <g
           transform="translate(10,10)"
           id="g91">
          <g
             fill-rule=""
             class="tp-name"
             fill="#ffffff"
             fill-opacity="1"
             id="g81">
            <g
               id="g79">
              <g
                 id="g77">
                <path
                   d="m 1.27,-22.47 v 0 q 0,-9.55 6.76,-16.35 v 0 q 6.79,-6.76 16.98,-6.76 v 0 5.88 q -7.74,0 -12.82,5.04 v 0 q -5.05,5.08 -5.05,12.19 v 0 q 0,7.11 5.05,12.19 v 0 q 5.08,5.04 12.82,5.04 v 0 5.87 q -10.19,0 -16.98,-6.76 v 0 Q 1.27,-12.92 1.27,-22.47 Z m 32.79,-17.17 v 22.82 q 3.9,-0.16 7.07,-3.49 v 0 q 3.18,-3.34 3.18,-7.94 v 0 q 0,-4.57 -3.18,-7.9 v 0 q -3.17,-3.33 -7.07,-3.49 z m 0,-5.94 v 0.04 q 6.37,0.22 11.23,5.26 v 0 q 4.92,5.05 4.92,12.03 v 0 q 0,7.02 -4.92,12.06 v 0 q -4.86,5.05 -11.23,5.27 v 0 11.55 h -5.88 v -46.21 z m 25.2,28.82 h 7.96 v -18.98 q 0,-1.62 -1.17,-2.79 v 0 q -1.18,-1.17 -2.83,-1.17 v 0 q -1.62,0 -2.79,1.17 v 0 q -1.17,1.17 -1.17,2.79 v 0 z m 3.96,-28.82 v 0 q 4.1,0 6.99,2.89 v 0 q 2.88,2.89 2.88,6.95 v 0 36.37 H 67.22 V -10.89 H 59.26 V 0.63 h -5.88 v -36.37 q 0,-4.06 2.89,-6.95 v 0 q 2.89,-2.89 6.95,-2.89 z m 13.05,0 h 5.87 V -5.24 H 92.52 V 0.63 H 76.27 Z"
                   transform="translate(-1.27,45.580002)"
                   id="path75" />
              </g>
            </g>
          </g>
          <g
             fill-rule=""
             class="tp-slogan"
             fill="#ffffff"
             fill-opacity="1"
             transform="translate(11.855,52.210003)"
             id="g89">
            <g
               id="g87">
              <g
                 id="g85">
                <path
                   d="M 1.08,-7.87 V 0 H 5.52 V -0.85 H 2.08 v -7.02 z m 5.83,0 V 0 h 4.66 V -0.85 H 7.91 V -3.71 H 10.9 V -4.56 H 7.91 v -2.47 h 3.54 v -0.84 z m 6.35,6.15 -0.6,0.7 c 0.34,0.36 0.75,0.64 1.22,0.85 0.48,0.21 0.99,0.31 1.54,0.31 0.42,0 0.79,-0.05 1.12,-0.17 0.32,-0.12 0.6,-0.28 0.84,-0.48 0.23,-0.2 0.41,-0.44 0.53,-0.71 0.12,-0.28 0.19,-0.57 0.19,-0.88 0,-0.29 -0.05,-0.54 -0.13,-0.76 -0.08,-0.22 -0.2,-0.41 -0.34,-0.58 C 17.48,-3.6 17.31,-3.75 17.11,-3.87 16.91,-3.99 16.7,-4.1 16.48,-4.2 l -1.12,-0.48 c -0.16,-0.06 -0.32,-0.13 -0.47,-0.21 -0.15,-0.08 -0.29,-0.16 -0.42,-0.26 -0.13,-0.1 -0.23,-0.22 -0.3,-0.35 -0.08,-0.13 -0.12,-0.3 -0.12,-0.49 0,-0.36 0.14,-0.64 0.4,-0.84 0.27,-0.21 0.63,-0.31 1.07,-0.31 0.36,0 0.69,0.07 0.99,0.2 0.29,0.13 0.55,0.31 0.79,0.54 l 0.54,-0.64 c -0.28,-0.29 -0.62,-0.53 -1.02,-0.71 -0.4,-0.18 -0.83,-0.27 -1.3,-0.27 -0.36,0 -0.69,0.06 -0.99,0.16 -0.3,0.1 -0.56,0.25 -0.78,0.44 -0.22,0.19 -0.4,0.41 -0.52,0.66 -0.12,0.26 -0.19,0.54 -0.19,0.83 0,0.29 0.05,0.54 0.15,0.76 0.09,0.22 0.22,0.41 0.37,0.57 0.15,0.16 0.32,0.3 0.52,0.41 0.19,0.11 0.38,0.21 0.56,0.29 l 1.13,0.49 c 0.18,0.09 0.35,0.17 0.51,0.25 0.16,0.08 0.3,0.17 0.42,0.27 0.11,0.1 0.21,0.22 0.27,0.36 0.07,0.14 0.11,0.31 0.11,0.51 0,0.39 -0.15,0.7 -0.44,0.93 -0.28,0.24 -0.69,0.36 -1.21,0.36 -0.41,0 -0.8,-0.09 -1.18,-0.27 -0.38,-0.18 -0.71,-0.42 -0.99,-0.72 z m 6.24,0 -0.6,0.7 c 0.34,0.36 0.75,0.64 1.22,0.85 0.48,0.21 0.99,0.31 1.54,0.31 0.42,0 0.79,-0.05 1.12,-0.17 0.32,-0.12 0.6,-0.28 0.84,-0.48 0.23,-0.2 0.41,-0.44 0.53,-0.71 0.12,-0.28 0.19,-0.57 0.19,-0.88 0,-0.29 -0.05,-0.54 -0.13,-0.76 -0.08,-0.22 -0.2,-0.41 -0.34,-0.58 C 23.72,-3.6 23.55,-3.75 23.35,-3.87 23.15,-3.99 22.94,-4.1 22.72,-4.2 L 21.6,-4.68 c -0.16,-0.06 -0.32,-0.13 -0.47,-0.21 -0.15,-0.08 -0.29,-0.16 -0.42,-0.26 -0.13,-0.1 -0.23,-0.22 -0.3,-0.35 -0.08,-0.13 -0.12,-0.3 -0.12,-0.49 0,-0.36 0.14,-0.64 0.4,-0.84 0.27,-0.21 0.63,-0.31 1.07,-0.31 0.36,0 0.69,0.07 0.99,0.2 0.29,0.13 0.55,0.31 0.79,0.54 l 0.54,-0.64 c -0.28,-0.29 -0.62,-0.53 -1.02,-0.71 -0.4,-0.18 -0.83,-0.27 -1.3,-0.27 -0.36,0 -0.69,0.06 -0.99,0.16 -0.3,0.1 -0.56,0.25 -0.78,0.44 -0.22,0.19 -0.4,0.41 -0.52,0.66 -0.12,0.26 -0.19,0.54 -0.19,0.83 0,0.29 0.05,0.54 0.15,0.76 0.09,0.22 0.22,0.41 0.37,0.57 0.15,0.16 0.32,0.3 0.52,0.41 0.19,0.11 0.38,0.21 0.56,0.29 l 1.13,0.49 c 0.18,0.09 0.35,0.17 0.51,0.25 0.16,0.08 0.3,0.17 0.42,0.27 0.11,0.1 0.21,0.22 0.27,0.36 0.07,0.14 0.11,0.31 0.11,0.51 0,0.39 -0.15,0.7 -0.44,0.93 -0.28,0.24 -0.69,0.36 -1.21,0.36 -0.41,0 -0.8,-0.09 -1.18,-0.27 -0.38,-0.18 -0.71,-0.42 -0.99,-0.72 z m 8.81,-6.15 V 0 h 0.99 v -7.87 z m 3.18,6.15 -0.6,0.7 c 0.34,0.36 0.75,0.64 1.22,0.85 0.47,0.21 0.99,0.31 1.54,0.31 0.41,0 0.79,-0.05 1.11,-0.17 0.33,-0.12 0.61,-0.28 0.84,-0.48 0.24,-0.2 0.41,-0.44 0.54,-0.71 0.12,-0.28 0.18,-0.57 0.18,-0.88 0,-0.29 -0.04,-0.54 -0.12,-0.76 C 36.11,-3.08 36,-3.27 35.86,-3.44 35.71,-3.6 35.54,-3.75 35.34,-3.87 35.14,-3.99 34.93,-4.1 34.7,-4.2 l -1.11,-0.48 c -0.16,-0.06 -0.32,-0.13 -0.47,-0.21 -0.15,-0.08 -0.29,-0.16 -0.42,-0.26 -0.13,-0.1 -0.23,-0.22 -0.31,-0.35 -0.07,-0.13 -0.11,-0.3 -0.11,-0.49 0,-0.36 0.13,-0.64 0.4,-0.84 0.27,-0.21 0.62,-0.31 1.06,-0.31 0.37,0 0.7,0.07 0.99,0.2 0.3,0.13 0.56,0.31 0.8,0.54 l 0.54,-0.64 c -0.28,-0.29 -0.62,-0.53 -1.02,-0.71 -0.4,-0.18 -0.83,-0.27 -1.31,-0.27 -0.36,0 -0.69,0.06 -0.99,0.16 -0.3,0.1 -0.56,0.25 -0.78,0.44 -0.22,0.19 -0.39,0.41 -0.51,0.66 -0.13,0.26 -0.19,0.54 -0.19,0.83 0,0.29 0.05,0.54 0.15,0.76 0.09,0.22 0.22,0.41 0.37,0.57 0.15,0.16 0.32,0.3 0.51,0.41 0.2,0.11 0.38,0.21 0.57,0.29 L 34,-3.41 c 0.18,0.09 0.35,0.17 0.51,0.25 0.16,0.08 0.3,0.17 0.42,0.27 0.11,0.1 0.2,0.22 0.27,0.36 0.07,0.14 0.1,0.31 0.1,0.51 0,0.39 -0.14,0.7 -0.43,0.93 -0.29,0.24 -0.69,0.36 -1.21,0.36 -0.41,0 -0.8,-0.09 -1.18,-0.27 -0.38,-0.18 -0.71,-0.42 -0.99,-0.72 z M 40.3,-7.87 V 0 h 0.92 v -4.33 c 0,-0.35 -0.02,-0.74 -0.05,-1.17 -0.03,-0.42 -0.06,-0.81 -0.08,-1.16 h 0.05 l 0.62,1.75 1.52,4.12 h 0.57 L 45.36,-4.91 46,-6.66 h 0.04 c -0.03,0.35 -0.06,0.74 -0.09,1.16 -0.02,0.43 -0.04,0.82 -0.04,1.17 V 0 h 0.95 v -7.87 h -1.18 l -1.51,4.22 -0.55,1.61 H 43.57 L 43,-3.65 41.47,-7.87 Z m 11.62,8.01 c 0.5,0 0.95,-0.09 1.37,-0.28 0.41,-0.2 0.76,-0.47 1.06,-0.83 0.3,-0.35 0.54,-0.78 0.7,-1.29 0.16,-0.51 0.25,-1.08 0.25,-1.71 0,-0.63 -0.09,-1.19 -0.25,-1.69 -0.16,-0.5 -0.4,-0.92 -0.7,-1.27 -0.3,-0.35 -0.65,-0.62 -1.06,-0.8 -0.42,-0.19 -0.87,-0.29 -1.37,-0.29 -0.49,0 -0.95,0.1 -1.36,0.28 -0.41,0.18 -0.76,0.45 -1.06,0.8 -0.3,0.35 -0.53,0.77 -0.69,1.27 -0.16,0.5 -0.25,1.07 -0.25,1.7 0,0.63 0.09,1.2 0.25,1.71 0.16,0.51 0.39,0.94 0.69,1.29 0.3,0.36 0.65,0.63 1.06,0.83 0.41,0.19 0.87,0.28 1.36,0.28 z m 0,-0.87 c -0.35,0 -0.67,-0.08 -0.95,-0.23 -0.28,-0.15 -0.53,-0.37 -0.73,-0.65 -0.21,-0.29 -0.36,-0.63 -0.48,-1.02 -0.11,-0.4 -0.16,-0.85 -0.16,-1.34 0,-0.49 0.05,-0.93 0.16,-1.32 0.12,-0.39 0.27,-0.73 0.48,-1 0.2,-0.27 0.45,-0.48 0.73,-0.63 0.28,-0.15 0.6,-0.22 0.95,-0.22 0.36,0 0.67,0.07 0.96,0.22 0.28,0.15 0.53,0.36 0.73,0.63 0.2,0.27 0.36,0.61 0.47,1 0.12,0.39 0.17,0.83 0.17,1.32 0,0.49 -0.05,0.94 -0.17,1.34 -0.11,0.39 -0.27,0.73 -0.47,1.02 -0.2,0.28 -0.45,0.5 -0.73,0.65 -0.29,0.15 -0.6,0.23 -0.96,0.23 z m 6.06,-3.41 v -2.93 h 1.32 c 0.62,0 1.09,0.11 1.42,0.31 0.33,0.21 0.49,0.58 0.49,1.1 0,0.51 -0.16,0.89 -0.49,1.14 -0.33,0.25 -0.8,0.38 -1.42,0.38 z M 61.31,0 h 1.13 l -2,-3.43 c 0.54,-0.14 0.97,-0.39 1.29,-0.76 0.32,-0.37 0.48,-0.86 0.48,-1.47 0,-0.41 -0.07,-0.76 -0.21,-1.04 -0.13,-0.28 -0.32,-0.5 -0.57,-0.68 -0.24,-0.18 -0.53,-0.3 -0.87,-0.38 -0.34,-0.07 -0.71,-0.11 -1.11,-0.11 H 56.99 V 0 h 0.99 v -3.32 h 1.43 z m 2.65,-7.87 V 0 h 4.66 v -0.85 h -3.66 v -2.86 h 2.98 v -0.85 h -2.98 v -2.47 h 3.54 v -0.84 z"
                   transform="translate(-1.08,8.016)"
                   id="path83" />
              </g>
            </g>
          </g>
        </g>
      </g>
    </g>
  </g>
  <mask
     id="9fffb855-e1d2-4a99-bae3-7a8746bfb4ab">
    <g
       fill="#ffffff"
       id="g101">
      <rect
         stroke-width="2"
         class="i-icon-bg"
         x="0"
         y="0"
         width="111.25"
         height="80.365997"
         id="rect99" />
    </g>
    <g
       transform="translate(10,10)"
       fill="#000000"
       id="g119">
      <g
         fill-rule=""
         class="tp-name"
         fill-opacity="1"
         id="g109">
        <g
           id="g107">
          <g
             id="g105">
            <path
               d="m 1.27,-22.47 v 0 q 0,-9.55 6.76,-16.35 v 0 q 6.79,-6.76 16.98,-6.76 v 0 5.88 q -7.74,0 -12.82,5.04 v 0 q -5.05,5.08 -5.05,12.19 v 0 q 0,7.11 5.05,12.19 v 0 q 5.08,5.04 12.82,5.04 v 0 5.87 q -10.19,0 -16.98,-6.76 v 0 Q 1.27,-12.92 1.27,-22.47 Z m 32.79,-17.17 v 22.82 q 3.9,-0.16 7.07,-3.49 v 0 q 3.18,-3.34 3.18,-7.94 v 0 q 0,-4.57 -3.18,-7.9 v 0 q -3.17,-3.33 -7.07,-3.49 z m 0,-5.94 v 0.04 q 6.37,0.22 11.23,5.26 v 0 q 4.92,5.05 4.92,12.03 v 0 q 0,7.02 -4.92,12.06 v 0 q -4.86,5.05 -11.23,5.27 v 0 11.55 h -5.88 v -46.21 z m 25.2,28.82 h 7.96 v -18.98 q 0,-1.62 -1.17,-2.79 v 0 q -1.18,-1.17 -2.83,-1.17 v 0 q -1.62,0 -2.79,1.17 v 0 q -1.17,1.17 -1.17,2.79 v 0 z m 3.96,-28.82 v 0 q 4.1,0 6.99,2.89 v 0 q 2.88,2.89 2.88,6.95 v 0 36.37 H 67.22 V -10.89 H 59.26 V 0.63 h -5.88 v -36.37 q 0,-4.06 2.89,-6.95 v 0 q 2.89,-2.89 6.95,-2.89 z m 13.05,0 h 5.87 V -5.24 H 92.52 V 0.63 H 76.27 Z"
               transform="translate(-1.27,45.580002)"
               id="path103" />
          </g>
        </g>
      </g>
      <g
         fill-rule=""
         class="tp-slogan"
         fill-opacity="1"
         transform="translate(11.855,52.210003)"
         id="g117">
        <g
           id="g115">
          <g
             id="g113">
            <path
               d="M 1.08,-7.87 V 0 H 5.52 V -0.85 H 2.08 v -7.02 z m 5.83,0 V 0 h 4.66 V -0.85 H 7.91 V -3.71 H 10.9 V -4.56 H 7.91 v -2.47 h 3.54 v -0.84 z m 6.35,6.15 -0.6,0.7 c 0.34,0.36 0.75,0.64 1.22,0.85 0.48,0.21 0.99,0.31 1.54,0.31 0.42,0 0.79,-0.05 1.12,-0.17 0.32,-0.12 0.6,-0.28 0.84,-0.48 0.23,-0.2 0.41,-0.44 0.53,-0.71 0.12,-0.28 0.19,-0.57 0.19,-0.88 0,-0.29 -0.05,-0.54 -0.13,-0.76 -0.08,-0.22 -0.2,-0.41 -0.34,-0.58 C 17.48,-3.6 17.31,-3.75 17.11,-3.87 16.91,-3.99 16.7,-4.1 16.48,-4.2 l -1.12,-0.48 c -0.16,-0.06 -0.32,-0.13 -0.47,-0.21 -0.15,-0.08 -0.29,-0.16 -0.42,-0.26 -0.13,-0.1 -0.23,-0.22 -0.3,-0.35 -0.08,-0.13 -0.12,-0.3 -0.12,-0.49 0,-0.36 0.14,-0.64 0.4,-0.84 0.27,-0.21 0.63,-0.31 1.07,-0.31 0.36,0 0.69,0.07 0.99,0.2 0.29,0.13 0.55,0.31 0.79,0.54 l 0.54,-0.64 c -0.28,-0.29 -0.62,-0.53 -1.02,-0.71 -0.4,-0.18 -0.83,-0.27 -1.3,-0.27 -0.36,0 -0.69,0.06 -0.99,0.16 -0.3,0.1 -0.56,0.25 -0.78,0.44 -0.22,0.19 -0.4,0.41 -0.52,0.66 -0.12,0.26 -0.19,0.54 -0.19,0.83 0,0.29 0.05,0.54 0.15,0.76 0.09,0.22 0.22,0.41 0.37,0.57 0.15,0.16 0.32,0.3 0.52,0.41 0.19,0.11 0.38,0.21 0.56,0.29 l 1.13,0.49 c 0.18,0.09 0.35,0.17 0.51,0.25 0.16,0.08 0.3,0.17 0.42,0.27 0.11,0.1 0.21,0.22 0.27,0.36 0.07,0.14 0.11,0.31 0.11,0.51 0,0.39 -0.15,0.7 -0.44,0.93 -0.28,0.24 -0.69,0.36 -1.21,0.36 -0.41,0 -0.8,-0.09 -1.18,-0.27 -0.38,-0.18 -0.71,-0.42 -0.99,-0.72 z m 6.24,0 -0.6,0.7 c 0.34,0.36 0.75,0.64 1.22,0.85 0.48,0.21 0.99,0.31 1.54,0.31 0.42,0 0.79,-0.05 1.12,-0.17 0.32,-0.12 0.6,-0.28 0.84,-0.48 0.23,-0.2 0.41,-0.44 0.53,-0.71 0.12,-0.28 0.19,-0.57 0.19,-0.88 0,-0.29 -0.05,-0.54 -0.13,-0.76 -0.08,-0.22 -0.2,-0.41 -0.34,-0.58 C 23.72,-3.6 23.55,-3.75 23.35,-3.87 23.15,-3.99 22.94,-4.1 22.72,-4.2 L 21.6,-4.68 c -0.16,-0.06 -0.32,-0.13 -0.47,-0.21 -0.15,-0.08 -0.29,-0.16 -0.42,-0.26 -0.13,-0.1 -0.23,-0.22 -0.3,-0.35 -0.08,-0.13 -0.12,-0.3 -0.12,-0.49 0,-0.36 0.14,-0.64 0.4,-0.84 0.27,-0.21 0.63,-0.31 1.07,-0.31 0.36,0 0.69,0.07 0.99,0.2 0.29,0.13 0.55,0.31 0.79,0.54 l 0.54,-0.64 c -0.28,-0.29 -0.62,-0.53 -1.02,-0.71 -0.4,-0.18 -0.83,-0.27 -1.3,-0.27 -0.36,0 -0.69,0.06 -0.99,0.16 -0.3,0.1 -0.56,0.25 -0.78,0.44 -0.22,0.19 -0.4,0.41 -0.52,0.66 -0.12,0.26 -0.19,0.54 -0.19,0.83 0,0.29 0.05,0.54 0.15,0.76 0.09,0.22 0.22,0.41 0.37,0.57 0.15,0.16 0.32,0.3 0.52,0.41 0.19,0.11 0.38,0.21 0.56,0.29 l 1.13,0.49 c 0.18,0.09 0.35,0.17 0.51,0.25 0.16,0.08 0.3,0.17 0.42,0.27 0.11,0.1 0.21,0.22 0.27,0.36 0.07,0.14 0.11,0.31 0.11,0.51 0,0.39 -0.15,0.7 -0.44,0.93 -0.28,0.24 -0.69,0.36 -1.21,0.36 -0.41,0 -0.8,-0.09 -1.18,-0.27 -0.38,-0.18 -0.71,-0.42 -0.99,-0.72 z m 8.81,-6.15 V 0 h 0.99 v -7.87 z m 3.18,6.15 -0.6,0.7 c 0.34,0.36 0.75,0.64 1.22,0.85 0.47,0.21 0.99,0.31 1.54,0.31 0.41,0 0.79,-0.05 1.11,-0.17 0.33,-0.12 0.61,-0.28 0.84,-0.48 0.24,-0.2 0.41,-0.44 0.54,-0.71 0.12,-0.28 0.18,-0.57 0.18,-0.88 0,-0.29 -0.04,-0.54 -0.12,-0.76 C 36.11,-3.08 36,-3.27 35.86,-3.44 35.71,-3.6 35.54,-3.75 35.34,-3.87 35.14,-3.99 34.93,-4.1 34.7,-4.2 l -1.11,-0.48 c -0.16,-0.06 -0.32,-0.13 -0.47,-0.21 -0.15,-0.08 -0.29,-0.16 -0.42,-0.26 -0.13,-0.1 -0.23,-0.22 -0.31,-0.35 -0.07,-0.13 -0.11,-0.3 -0.11,-0.49 0,-0.36 0.13,-0.64 0.4,-0.84 0.27,-0.21 0.62,-0.31 1.06,-0.31 0.37,0 0.7,0.07 0.99,0.2 0.3,0.13 0.56,0.31 0.8,0.54 l 0.54,-0.64 c -0.28,-0.29 -0.62,-0.53 -1.02,-0.71 -0.4,-0.18 -0.83,-0.27 -1.31,-0.27 -0.36,0 -0.69,0.06 -0.99,0.16 -0.3,0.1 -0.56,0.25 -0.78,0.44 -0.22,0.19 -0.39,0.41 -0.51,0.66 -0.13,0.26 -0.19,0.54 -0.19,0.83 0,0.29 0.05,0.54 0.15,0.76 0.09,0.22 0.22,0.41 0.37,0.57 0.15,0.16 0.32,0.3 0.51,0.41 0.2,0.11 0.38,0.21 0.57,0.29 L 34,-3.41 c 0.18,0.09 0.35,0.17 0.51,0.25 0.16,0.08 0.3,0.17 0.42,0.27 0.11,0.1 0.2,0.22 0.27,0.36 0.07,0.14 0.1,0.31 0.1,0.51 0,0.39 -0.14,0.7 -0.43,0.93 -0.29,0.24 -0.69,0.36 -1.21,0.36 -0.41,0 -0.8,-0.09 -1.18,-0.27 -0.38,-0.18 -0.71,-0.42 -0.99,-0.72 z M 40.3,-7.87 V 0 h 0.92 v -4.33 c 0,-0.35 -0.02,-0.74 -0.05,-1.17 -0.03,-0.42 -0.06,-0.81 -0.08,-1.16 h 0.05 l 0.62,1.75 1.52,4.12 h 0.57 L 45.36,-4.91 46,-6.66 h 0.04 c -0.03,0.35 -0.06,0.74 -0.09,1.16 -0.02,0.43 -0.04,0.82 -0.04,1.17 V 0 h 0.95 v -7.87 h -1.18 l -1.51,4.22 -0.55,1.61 H 43.57 L 43,-3.65 41.47,-7.87 Z m 11.62,8.01 c 0.5,0 0.95,-0.09 1.37,-0.28 0.41,-0.2 0.76,-0.47 1.06,-0.83 0.3,-0.35 0.54,-0.78 0.7,-1.29 0.16,-0.51 0.25,-1.08 0.25,-1.71 0,-0.63 -0.09,-1.19 -0.25,-1.69 -0.16,-0.5 -0.4,-0.92 -0.7,-1.27 -0.3,-0.35 -0.65,-0.62 -1.06,-0.8 -0.42,-0.19 -0.87,-0.29 -1.37,-0.29 -0.49,0 -0.95,0.1 -1.36,0.28 -0.41,0.18 -0.76,0.45 -1.06,0.8 -0.3,0.35 -0.53,0.77 -0.69,1.27 -0.16,0.5 -0.25,1.07 -0.25,1.7 0,0.63 0.09,1.2 0.25,1.71 0.16,0.51 0.39,0.94 0.69,1.29 0.3,0.36 0.65,0.63 1.06,0.83 0.41,0.19 0.87,0.28 1.36,0.28 z m 0,-0.87 c -0.35,0 -0.67,-0.08 -0.95,-0.23 -0.28,-0.15 -0.53,-0.37 -0.73,-0.65 -0.21,-0.29 -0.36,-0.63 -0.48,-1.02 -0.11,-0.4 -0.16,-0.85 -0.16,-1.34 0,-0.49 0.05,-0.93 0.16,-1.32 0.12,-0.39 0.27,-0.73 0.48,-1 0.2,-0.27 0.45,-0.48 0.73,-0.63 0.28,-0.15 0.6,-0.22 0.95,-0.22 0.36,0 0.67,0.07 0.96,0.22 0.28,0.15 0.53,0.36 0.73,0.63 0.2,0.27 0.36,0.61 0.47,1 0.12,0.39 0.17,0.83 0.17,1.32 0,0.49 -0.05,0.94 -0.17,1.34 -0.11,0.39 -0.27,0.73 -0.47,1.02 -0.2,0.28 -0.45,0.5 -0.73,0.65 -0.29,0.15 -0.6,0.23 -0.96,0.23 z m 6.06,-3.41 v -2.93 h 1.32 c 0.62,0 1.09,0.11 1.42,0.31 0.33,0.21 0.49,0.58 0.49,1.1 0,0.51 -0.16,0.89 -0.49,1.14 -0.33,0.25 -0.8,0.38 -1.42,0.38 z M 61.31,0 h 1.13 l -2,-3.43 c 0.54,-0.14 0.97,-0.39 1.29,-0.76 0.32,-0.37 0.48,-0.86 0.48,-1.47 0,-0.41 -0.07,-0.76 -0.21,-1.04 -0.13,-0.28 -0.32,-0.5 -0.57,-0.68 -0.24,-0.18 -0.53,-0.3 -0.87,-0.38 -0.34,-0.07 -0.71,-0.11 -1.11,-0.11 H 56.99 V 0 h 0.99 v -3.32 h 1.43 z m 2.65,-7.87 V 0 h 4.66 v -0.85 h -3.66 v -2.86 h 2.98 v -0.85 h -2.98 v -2.47 h 3.54 v -0.84 z"
               transform="translate(-1.08,8.016)"
               id="path111" />
          </g>
        </g>
      </g>
    </g>
  </mask>
  <defs
     v-gra="od"
     id="defs122" />
</svg>
