<?xml version="1.0" ?>
<svg xmlns="http://www.w3.org/2000/svg" version="1.1" width="600" height="600">
  <defs/>
  <g>
    <path stroke-width="0" fill="rgb(0, 0, 0)" opacity="1.0" d="M 163.72647094726562 355.210205078125 C 156.30044555664062 355.210205078125 150.03140258789062 354.7799072265625 144.91928100585938 353.9193115234375 C 139.86099243164062 353.0587158203125 135.71749877929688 351.5257568359375 132.48880004882812 349.32049560546875 C 129.31390380859375 347.0614013671875 126.865478515625 343.887939453125 125.14349365234375 339.8001708984375 C 123.475341796875 335.7122802734375 122.31838989257812 330.468017578125 121.67263793945312 324.0673828125 C 121.08071899414062 317.6666259765625 120.78475952148438 309.8944091796875 120.78475952148438 300.75054931640625 C 120.78475952148438 291.55291748046875 121.08071899414062 283.7806396484375 121.67263793945312 277.4337158203125 C 122.31838989257812 271.0330810546875 123.475341796875 265.815673828125 125.14349365234375 261.7816162109375 C 126.865478515625 257.69384765625 129.31390380859375 254.5203857421875 132.48880004882812 252.26129150390625 C 135.71749877929688 249.94842529296875 139.86099243164062 248.3616943359375 144.91928100585938 247.5010986328125 C 150.03140258789062 246.6405029296875 156.30044555664062 246.210205078125 163.72647094726562 246.210205078125 C 166.63229370117188 246.210205078125 169.5919189453125 246.31781005859375 172.60537719726562 246.532958984375 C 175.67263793945312 246.6943359375 178.5784912109375 246.93634033203125 181.3228759765625 247.259033203125 C 184.12109375 247.581787109375 186.56951904296875 247.9852294921875 188.66815185546875 248.46929931640625 C 188.66815185546875 252.046142578125 188.66815185546875 255.62298583984375 188.66815185546875 259.1998291015625 C 186.30044555664062 258.87713623046875 183.85202026367188 258.608154296875 181.3228759765625 258.39306640625 C 178.79373168945312 258.1241455078125 176.26458740234375 257.93585205078125 173.73541259765625 257.8282470703125 C 171.26010131835938 257.720703125 169.05380249023438 257.66693115234375 167.1165771484375 257.66693115234375 C 161.14349365234375 257.66693115234375 156.13900756835938 257.93585205078125 152.1031494140625 258.4737548828125 C 148.0672607421875 258.95782470703125 144.865478515625 259.952880859375 142.49774169921875 261.45892333984375 C 140.13003540039062 262.9649658203125 138.32736206054688 265.3046875 137.08969116210938 268.4781494140625 C 135.90582275390625 271.59783935546875 135.09866333007812 275.766357421875 134.66815185546875 280.98370361328125 C 134.29147338867188 286.2010498046875 134.1031494140625 292.7900390625 134.1031494140625 300.75054931640625 C 134.1031494140625 308.65728759765625 134.29147338867188 315.2193603515625 134.66815185546875 320.43670654296875 C 135.09866333007812 325.654052734375 135.90582275390625 329.8494873046875 137.08969116210938 333.02294921875 C 138.32736206054688 336.142578125 140.13003540039062 338.4554443359375 142.49774169921875 339.9615478515625 C 144.865478515625 341.467529296875 148.0672607421875 342.489501953125 152.1031494140625 343.02734375 C 156.13900756835938 343.511474609375 161.14349365234375 343.7535400390625 167.1165771484375 343.7535400390625 C 170.61434936523438 343.7535400390625 174.43499755859375 343.6190185546875 178.5784912109375 343.35009765625 C 182.72198486328125 343.02734375 186.30044555664062 342.65087890625 189.31390380859375 342.2205810546875 C 189.31390380859375 345.87811279296875 189.31390380859375 349.53564453125 189.31390380859375 353.19317626953125 C 187.10763549804688 353.62347412109375 184.524658203125 353.97314453125 181.56503295898438 354.2420654296875 C 178.6591796875 354.510986328125 175.645751953125 354.72613525390625 172.524658203125 354.887451171875 C 169.4573974609375 355.1026611328125 166.524658203125 355.210205078125 163.72647094726562 355.210205078125"/>
    <path stroke-width="0" fill="rgb(0, 0, 0)" opacity="1.0" d="M 212.31838989257812 354.0 C 212.31838989257812 351.77960205078125 212.31838989257812 349.5592041015625 212.31838989257812 347.3387451171875 C 212.31838989257812 345.118408203125 212.31838989257812 342.89794921875 212.31838989257812 340.67755126953125 C 212.31838989257812 338.4571533203125 212.31838989257812 336.2366943359375 212.31838989257812 334.016357421875 C 212.31838989257812 331.7958984375 212.31838989257812 329.5755615234375 212.31838989257812 327.3551025390625 C 212.31838989257812 325.13470458984375 212.31838989257812 322.914306640625 212.31838989257812 320.69384765625 C 212.31838989257812 318.4735107421875 212.31838989257812 316.2530517578125 212.31838989257812 314.03265380859375 C 212.31838989257812 311.812255859375 212.31838989257812 309.59185791015625 212.31838989257812 307.3714599609375 C 212.31838989257812 305.1510009765625 212.31838989257812 302.9306640625 212.31838989257812 300.710205078125 C 212.31838989257812 298.48980712890625 212.31838989257812 296.2694091796875 212.31838989257812 294.0489501953125 C 212.31838989257812 291.82861328125 212.31838989257812 289.608154296875 212.31838989257812 287.38775634765625 C 212.31838989257812 285.1673583984375 212.31838989257812 282.94696044921875 212.31838989257812 280.7265625 C 212.31838989257812 278.506103515625 212.31838989257812 276.2857666015625 212.31838989257812 274.0653076171875 C 212.31838989257812 271.84490966796875 212.31838989257812 269.62451171875 212.31838989257812 267.40411376953125 C 212.31838989257812 265.1837158203125 212.31838989257812 262.9632568359375 212.31838989257812 260.742919921875 C 212.31838989257812 258.5224609375 212.31838989257812 256.30206298828125 212.31838989257812 254.0816650390625 C 212.31838989257812 251.8612060546875 212.31838989257812 249.640869140625 212.31838989257812 247.42041015625 C 214.53811645507812 247.42041015625 216.75784301757812 247.42041015625 218.97756958007812 247.42041015625 C 221.19732666015625 247.42041015625 223.41705322265625 247.42041015625 225.63677978515625 247.42041015625 C 225.63677978515625 251.3704833984375 225.63677978515625 255.3204345703125 225.63677978515625 259.27044677734375 C 225.63677978515625 263.220458984375 225.63677978515625 267.17047119140625 225.63677978515625 271.1204833984375 C 225.63677978515625 275.0704345703125 225.63677978515625 279.0205078125 225.63677978515625 282.970458984375 C 225.63677978515625 286.9205322265625 225.63677978515625 290.8704833984375 225.63677978515625 294.82049560546875 C 225.63677978515625 298.7705078125 225.63677978515625 302.72052001953125 225.63677978515625 306.6705322265625 C 225.63677978515625 310.62054443359375 225.63677978515625 314.570556640625 225.63677978515625 318.5205078125 C 225.63677978515625 322.4705810546875 225.63677978515625 326.4205322265625 225.63677978515625 330.37054443359375 C 225.63677978515625 334.320556640625 225.63677978515625 338.27056884765625 225.63677978515625 342.2205810546875 C 227.70852661132812 342.2205810546875 229.7802734375 342.2205810546875 231.85202026367188 342.2205810546875 C 233.92376708984375 342.2205810546875 235.99551391601562 342.2205810546875 238.0672607421875 342.2205810546875 C 242.21075439453125 342.2205810546875 246.354248046875 342.2205810546875 250.49774169921875 342.2205810546875 C 252.56951904296875 342.2205810546875 254.64126586914062 342.2205810546875 256.7130126953125 342.2205810546875 C 258.78472900390625 342.2205810546875 260.85650634765625 342.2205810546875 262.9282531738281 342.2205810546875 C 265.0 342.2205810546875 267.0717468261719 342.2205810546875 269.14349365234375 342.2205810546875 C 271.2152404785156 342.2205810546875 273.2869873046875 342.2205810546875 275.3587646484375 342.2205810546875 C 275.3587646484375 346.1470947265625 275.3587646484375 350.073486328125 275.3587646484375 354.0 C 272.7320556640625 354.0 270.1053771972656 354.0 267.47869873046875 354.0 C 264.8520202636719 354.0 262.225341796875 354.0 259.5986328125 354.0 C 256.97198486328125 354.0 254.34527587890625 354.0 251.7186279296875 354.0 C 249.0919189453125 354.0 246.46524047851562 354.0 243.83856201171875 354.0 C 241.21188354492188 354.0 238.585205078125 354.0 235.95852661132812 354.0 C 233.33184814453125 354.0 230.70513916015625 354.0 228.0784912109375 354.0 C 225.4517822265625 354.0 222.82510375976562 354.0 220.19842529296875 354.0 C 217.57174682617188 354.0 214.945068359375 354.0 212.31838989257812 354.0"/>
    <path stroke-width="0" fill="rgb(0, 0, 0)" opacity="1.0" d="M 281.426025390625 353.0050964355469 C 283.7972412109375 349.06805419921875 285.6583251953125 345.891845703125 286.23358154296875 344.40576171875 C 287.66839599609375 342.374755859375 289.05181884765625 340.43798828125 290.05059814453125 338.7133483886719 C 291.58203125 336.60302734375 292.49676513671875 335.1214294433594 293.733154296875 333.20257568359375 C 294.693115234375 331.2707824707031 295.7840576171875 329.44354248046875 297.1270751953125 327.703857421875 C 298.1871337890625 325.947998046875 299.080078125 324.2461853027344 299.858642578125 322.7535400390625 C 300.53570556640625 321.11541748046875 300.77825927734375 320.7314453125 300.85760498046875 318.7764892578125 C 301.3924560546875 317.07244873046875 301.7061767578125 314.0142822265625 301.936279296875 309.5955810546875 C 302.966064453125 305.37066650390625 303.63897705078125 303.0517883300781 304.259765625 298.2008361816406 C 304.2635498046875 294.6980895996094 304.72552490234375 293.2817077636719 304.9874267578125 292.19091796875 C 307.44464111328125 287.98443603515625 307.57379150390625 287.5901794433594 310.6253662109375 285.0836486816406 C 311.89312744140625 283.9578857421875 313.0489501953125 282.1160888671875 314.13299560546875 280.2656555175781 C 315.2451171875 278.29296875 316.54290771484375 276.5879821777344 317.30828857421875 274.877197265625 C 318.4129638671875 273.10858154296875 318.95458984375 271.9170227050781 319.47149658203125 270.4988098144531 C 320.45220947265625 268.3408203125 321.2884521484375 266.3143005371094 321.67474365234375 264.17926025390625 C 322.88604736328125 260.6044616699219 322.55072021484375 258.58306884765625 322.03118896484375 253.73426818847656 C 323.43096923828125 249.96261596679688 324.78173828125 250.4517822265625 331.50885009765625 259.1934814453125 C 334.30389404296875 248.06089782714844 334.8779296875 247.5455322265625 334.56787109375 247.4580078125 C 334.77496337890625 247.42041015625 337.17626953125 247.74264526367188 339.104248046875 248.37631225585938 C 339.84814453125 253.04071044921875 339.63873291015625 257.9877624511719 340.77520751953125 262.5760803222656 C 343.1014404296875 267.0335693359375 344.9476318359375 270.33740234375 347.46722412109375 273.96710205078125 C 348.6033935546875 276.01861572265625 350.01055908203125 278.04913330078125 351.43310546875 280.0249328613281 C 352.8505859375 281.9488220214844 353.98626708984375 283.6571960449219 355.476318359375 285.757080078125 C 360.372802734375 288.4654541015625 363.76910400390625 290.76702880859375 365.69134521484375 293.7987365722656 C 365.64764404296875 299.36358642578125 365.41131591796875 303.41351318359375 365.14324951171875 308.88580322265625 C 365.8958740234375 312.11834716796875 366.07763671875 313.9068603515625 366.10174560546875 317.26885986328125 C 367.1328125 321.9658508300781 368.07562255859375 323.9443054199219 369.610107421875 328.0516357421875 C 370.62249755859375 330.7408447265625 371.700927734375 332.993896484375 372.86676025390625 334.98828125 C 374.055419921875 336.46051025390625 375.1260986328125 338.26715087890625 376.179443359375 340.21881103515625 C 377.10003662109375 341.92376708984375 377.79327392578125 343.26483154296875 379.22564697265625 345.1910400390625 C 380.17364501953125 347.30364990234375 381.77117919921875 350.015625 383.426025390625 353.6225280761719 C 376.44708251953125 353.896728515625 372.686767578125 354.0 367.18572998046875 353.9872131347656 C 366.15386962890625 351.7779541015625 364.854248046875 349.91461181640625 363.9512939453125 348.4169006347656 C 362.68524169921875 346.674560546875 361.47119140625 344.68865966796875 360.229736328125 342.6702880859375 C 358.86004638671875 340.44207763671875 357.72216796875 338.4088134765625 356.49688720703125 335.8674621582031 C 355.19207763671875 334.20947265625 354.516357421875 333.04266357421875 352.8883056640625 330.8939208984375 C 350.20831298828125 330.037109375 347.403564453125 327.2334289550781 344.18695068359375 325.99774169921875 C 346.671875 325.94891357421875 340.840087890625 320.780029296875 340.275390625 320.85943603515625 C 336.05682373046875 322.8408203125 332.589111328125 324.49261474609375 327.61273193359375 328.0124816894531 C 321.25665283203125 330.3319396972656 317.54974365234375 330.5092468261719 312.1583251953125 330.4437255859375 C 310.80987548828125 331.8761901855469 309.526123046875 333.69561767578125 308.366455078125 335.5751953125 C 307.35882568359375 337.35980224609375 306.055908203125 339.268310546875 304.81793212890625 341.1960754394531 C 303.6142578125 343.1163330078125 302.1668701171875 345.41583251953125 301.18109130859375 346.8965759277344 C 299.6904296875 349.0551452636719 298.77337646484375 350.7222900390625 297.2791748046875 353.72467041015625 C 292.21856689453125 353.34149169921875 289.05877685546875 353.2572937011719 281.426025390625 353.0050964355469M 319.40399169921875 314.505126953125 C 321.9979248046875 315.08160400390625 325.5311279296875 315.8561096191406 327.45220947265625 315.98065185546875 C 330.61590576171875 315.4870910644531 334.21844482421875 314.39373779296875 337.829833984375 312.7820129394531 C 340.59637451171875 312.3907470703125 344.91802978515625 312.60321044921875 345.37237548828125 312.64532470703125 C 346.54583740234375 312.884033203125 353.75335693359375 313.8996276855469 348.77783203125 314.0042724609375 C 352.44805908203125 303.48834228515625 352.27557373046875 298.1156005859375 351.84246826171875 296.60107421875 C 350.3377685546875 293.6630554199219 348.40582275390625 290.61767578125 346.2723388671875 286.8061828613281 C 342.660888671875 282.3589782714844 339.92510986328125 278.51446533203125 337.914794921875 274.2568054199219 C 335.7388916015625 270.04327392578125 333.49761962890625 265.35858154296875 331.89593505859375 258.8768310546875 C 331.6671142578125 258.79644775390625 329.57293701171875 258.1762390136719 330.14227294921875 258.4325256347656 C 329.0748291015625 265.9660949707031 328.14288330078125 271.4961242675781 327.10205078125 275.5190124511719 C 325.11273193359375 279.26934814453125 322.87017822265625 283.2386474609375 320.51513671875 287.4332580566406 C 318.55206298828125 291.5245361328125 318.08026123046875 292.77142333984375 318.1903076171875 297.8876037597656 C 318.09368896484375 298.19329833984375 320.55633544921875 310.8764343261719 319.40399169921875 314.505126953125"/>
    <path stroke-width="0" fill="rgb(0, 0, 0)" opacity="1.0" d="M 403.4573974609375 354.0 C 403.4573974609375 351.77960205078125 403.4573974609375 349.5592041015625 403.4573974609375 347.3387451171875 C 403.4573974609375 345.118408203125 403.4573974609375 342.89794921875 403.4573974609375 340.67755126953125 C 403.4573974609375 338.4571533203125 403.4573974609375 336.2366943359375 403.4573974609375 334.016357421875 C 403.4573974609375 331.7958984375 403.4573974609375 329.5755615234375 403.4573974609375 327.3551025390625 C 403.4573974609375 325.13470458984375 403.4573974609375 322.914306640625 403.4573974609375 320.69384765625 C 403.4573974609375 318.4735107421875 403.4573974609375 316.2530517578125 403.4573974609375 314.03265380859375 C 403.4573974609375 311.812255859375 403.4573974609375 309.59185791015625 403.4573974609375 307.3714599609375 C 403.4573974609375 305.1510009765625 403.4573974609375 302.9306640625 403.4573974609375 300.710205078125 C 403.4573974609375 298.48980712890625 403.4573974609375 296.2694091796875 403.4573974609375 294.0489501953125 C 403.4573974609375 291.82861328125 403.4573974609375 289.608154296875 403.4573974609375 287.38775634765625 C 403.4573974609375 285.1673583984375 403.4573974609375 282.94696044921875 403.4573974609375 280.7265625 C 403.4573974609375 278.506103515625 403.4573974609375 276.2857666015625 403.4573974609375 274.0653076171875 C 403.4573974609375 271.84490966796875 403.4573974609375 269.62451171875 403.4573974609375 267.40411376953125 C 403.4573974609375 265.1837158203125 403.4573974609375 262.9632568359375 403.4573974609375 260.742919921875 C 403.4573974609375 258.5224609375 403.4573974609375 256.30206298828125 403.4573974609375 254.0816650390625 C 403.4573974609375 251.8612060546875 403.4573974609375 249.640869140625 403.4573974609375 247.42041015625 C 407.3453369140625 247.42041015625 411.233154296875 247.42041015625 415.12109375 247.42041015625 C 417.06500244140625 247.42041015625 419.00897216796875 247.42041015625 420.952880859375 247.42041015625 C 422.8968505859375 247.42041015625 424.8408203125 247.42041015625 426.7847900390625 247.42041015625 C 430.67266845703125 247.42041015625 434.560546875 247.42041015625 438.44842529296875 247.42041015625 C 440.39239501953125 247.42041015625 442.3363037109375 247.42041015625 444.2802734375 247.42041015625 C 446.2242431640625 247.42041015625 448.16815185546875 247.42041015625 450.11212158203125 247.42041015625 C 453.5291748046875 247.42041015625 456.596435546875 247.6356201171875 459.31390380859375 248.06591796875 C 462.0313720703125 248.4962158203125 464.39910888671875 249.1416015625 466.41705322265625 250.002197265625 C 468.4619140625 250.8359375 470.244384765625 251.83770751953125 471.76458740234375 253.007568359375 C 473.2847900390625 254.177490234375 474.5426025390625 255.51544189453125 475.5380859375 257.021484375 C 477.5830078125 260.0335693359375 478.9552001953125 263.58349609375 479.65472412109375 267.67138671875 C 480.0313720703125 269.6883544921875 480.31390380859375 271.81298828125 480.50225830078125 274.045166015625 C 480.69061279296875 276.27734375 480.7847900390625 278.6170654296875 480.7847900390625 281.06439208984375 C 480.7847900390625 283.37725830078125 480.697265625 285.62286376953125 480.5224609375 287.80126953125 C 480.3475341796875 289.9796142578125 480.085205078125 292.0908203125 479.73541259765625 294.13470458984375 C 479.41259765625 296.17864990234375 478.9080810546875 298.1015625 478.22198486328125 299.9034423828125 C 477.535888671875 301.705322265625 476.66815185546875 303.3861083984375 475.61883544921875 304.94598388671875 C 474.596435546875 306.4788818359375 473.3116455078125 307.8504638671875 471.76458740234375 309.0606689453125 C 470.217529296875 310.2708740234375 468.4080810546875 311.31976318359375 466.3363037109375 312.207275390625 C 464.29150390625 313.06787109375 461.89013671875 313.7132568359375 459.13232421875 314.14361572265625 C 456.37445068359375 314.57391357421875 453.2601318359375 314.7890625 449.78924560546875 314.7890625 C 447.0380859375 314.7890625 444.2869873046875 314.7890625 441.535888671875 314.7890625 C 438.7847900390625 314.7890625 436.03363037109375 314.7890625 433.282470703125 314.7890625 C 430.5313720703125 314.7890625 427.7802734375 314.7890625 425.0291748046875 314.7890625 C 422.278076171875 314.7890625 419.52685546875 314.7890625 416.7757568359375 314.7890625 C 416.7757568359375 318.056640625 416.7757568359375 321.32421875 416.7757568359375 324.591796875 C 416.7757568359375 327.859375 416.7757568359375 331.126953125 416.7757568359375 334.39453125 C 416.7757568359375 337.662109375 416.7757568359375 340.9296875 416.7757568359375 344.197265625 C 416.7757568359375 347.46484375 416.7757568359375 350.732421875 416.7757568359375 354.0 C 414.5560302734375 354.0 412.3363037109375 354.0 410.1165771484375 354.0 C 407.8968505859375 354.0 405.6771240234375 354.0 403.4573974609375 354.0M 416.7757568359375 303.1710205078125 C 419.1636962890625 303.1710205078125 421.55157470703125 303.1710205078125 423.939453125 303.1710205078125 C 426.327392578125 303.1710205078125 428.7152099609375 303.1710205078125 431.1031494140625 303.1710205078125 C 433.49102783203125 303.1710205078125 435.87890625 303.1710205078125 438.266845703125 303.1710205078125 C 440.65472412109375 303.1710205078125 443.0426025390625 303.1710205078125 445.43048095703125 303.1710205078125 C 447.95965576171875 303.1710205078125 450.2264404296875 303.07012939453125 452.23095703125 302.868408203125 C 454.2354736328125 302.666748046875 455.9775390625 302.3641357421875 457.4573974609375 301.9608154296875 C 460.4169921875 301.1539306640625 462.623291015625 299.836181640625 464.07623291015625 298.0074462890625 C 465.5291748046875 296.17864990234375 466.4439697265625 293.8927001953125 466.82061767578125 291.1495361328125 C 467.2510986328125 288.3525390625 467.46636962890625 284.9908447265625 467.46636962890625 281.06439208984375 C 467.46636962890625 277.137939453125 467.27801513671875 273.7762451171875 466.9013671875 270.979248046875 C 466.5784912109375 268.182373046875 465.717529296875 265.92327880859375 464.318359375 264.20208740234375 C 462.9193115234375 262.4271240234375 460.7398681640625 261.10931396484375 457.7802734375 260.24871826171875 C 456.3004150390625 259.79150390625 454.558349609375 259.4486083984375 452.5538330078125 259.22003173828125 C 450.54931640625 258.991455078125 448.28253173828125 258.87713623046875 445.75335693359375 258.87713623046875 C 443.338623046875 258.87713623046875 440.92376708984375 258.87713623046875 438.50897216796875 258.87713623046875 C 436.09417724609375 258.87713623046875 433.67938232421875 258.87713623046875 431.26458740234375 258.87713623046875 C 428.8497314453125 258.87713623046875 426.43499755859375 258.87713623046875 424.0201416015625 258.87713623046875 C 421.6053466796875 258.87713623046875 419.1905517578125 258.87713623046875 416.7757568359375 258.87713623046875 C 416.7757568359375 262.56829833984375 416.7757568359375 266.2593994140625 416.7757568359375 269.9505615234375 C 416.7757568359375 273.6417236328125 416.7757568359375 277.3328857421875 416.7757568359375 281.0240478515625 C 416.7757568359375 284.7152099609375 416.7757568359375 288.4063720703125 416.7757568359375 292.0975341796875 C 416.7757568359375 295.7886962890625 416.7757568359375 299.4798583984375 416.7757568359375 303.1710205078125"/>
  </g>
</svg>
